<?xml version="1.0" standalone="no"?>
<!DOCTYPE svg PUBLIC "-//W3C//DTD SVG 20010904//EN"
 "http://www.w3.org/TR/2001/REC-SVG-20010904/DTD/svg10.dtd">
<svg version="1.0" xmlns="http://www.w3.org/2000/svg"
 width="306.000000pt" height="91.000000pt" viewBox="0 0 306.000000 91.000000"
 preserveAspectRatio="xMidYMid meet">

<g transform="translate(0.000000,91.000000) scale(0.100000,-0.100000)"
fill="#000000" stroke="none">
<path d="M717 849 c-8 -19 -57 -136 -110 -261 -54 -125 -97 -229 -97 -232 0
-3 15 -6 34 -6 32 0 35 3 63 73 l29 72 95 0 94 0 29 -72 c29 -70 31 -73 63
-73 18 0 33 4 33 9 0 4 -49 124 -109 266 l-109 258 -15 -34z m73 -280 c0 -5
-27 -9 -60 -9 -33 0 -60 4 -60 9 0 5 11 33 23 62 13 30 27 63 31 74 6 16 13 5
37 -53 16 -40 29 -78 29 -83z"/>
<path d="M1632 860 c-6 -14 -56 -132 -111 -262 -56 -131 -101 -240 -101 -243
0 -3 15 -5 34 -5 32 0 35 3 63 73 l29 72 94 0 94 0 31 -72 c28 -69 32 -73 63
-73 17 0 32 4 32 9 0 4 -49 125 -109 267 -97 228 -111 255 -119 234z m15 -298
c-33 -2 -62 -1 -65 2 -2 3 5 28 17 55 11 27 26 62 32 78 10 27 11 25 43 -52
l32 -80 -59 -3z"/>
<path d="M1932 618 l3 -263 38 -3 37 -3 0 179 0 178 182 -183 c100 -101 185
-183 188 -183 3 0 4 117 2 260 l-3 260 -34 0 -35 0 -1 -177 c0 -141 -3 -174
-12 -160 -7 10 -92 94 -190 188 l-177 171 2 -264z"/>
<path d="M1195 861 c-132 -35 -214 -149 -202 -281 8 -96 69 -181 153 -216 56
-24 196 -15 241 14 19 12 -6 75 -27 66 -94 -37 -184 -24 -241 36 -82 86 -67
222 31 286 42 28 124 38 182 21 24 -6 29 -3 42 22 15 29 15 29 -16 40 -44 16
-127 22 -163 12z"/>
<path d="M2660 855 c-105 -33 -180 -138 -180 -250 1 -239 297 -346 453 -164
36 41 67 118 67 164 0 84 -71 195 -151 236 -51 26 -133 32 -189 14z m160 -80
c29 -15 72 -60 89 -92 14 -27 14 -113 0 -150 -15 -40 -67 -91 -107 -104 -154
-51 -295 95 -238 246 19 50 73 102 114 111 15 3 32 7 37 9 16 5 78 -7 105 -20z"/>
<path d="M22 608 l3 -253 38 -3 37 -3 0 110 0 111 130 0 130 0 0 -110 0 -110
40 0 40 0 0 255 0 255 -40 0 -40 0 0 -110 0 -111 -127 3 -128 3 -3 108 -3 107
-40 0 -39 0 2 -252z"/>
<path d="M602 138 l3 -83 31 -3 c64 -6 110 31 85 69 -6 11 -8 30 -5 44 10 38
-11 55 -68 55 l-49 0 3 -82z m83 37 c0 -31 -49 -28 -53 3 -3 20 0 23 25 20 20
-2 28 -8 28 -23z m10 -70 c0 -15 -8 -21 -32 -23 -30 -3 -33 -1 -33 23 0 24 3
26 33 23 24 -2 32 -8 32 -23z"/>
<path d="M772 138 l3 -83 53 -3 c42 -2 52 0 52 12 0 12 -11 16 -40 16 -36 0
-40 3 -40 25 0 22 4 25 35 25 19 0 35 5 35 10 0 6 -16 10 -35 10 -31 0 -35 3
-35 25 0 23 4 25 40 25 22 0 40 5 40 10 0 6 -25 10 -55 10 l-56 0 3 -82z"/>
<path d="M931 206 c-20 -24 -9 -49 34 -73 53 -30 52 -48 -2 -47 -48 1 -56 -11
-19 -27 48 -22 106 14 90 56 -4 9 -24 25 -46 36 -45 23 -45 44 0 45 47 0 44
19 -4 22 -27 2 -45 -2 -53 -12z"/>
<path d="M1060 210 c0 -5 11 -10 25 -10 24 0 25 -2 25 -76 0 -56 3 -75 13 -72
8 3 13 30 15 76 3 69 4 72 27 72 14 0 25 5 25 10 0 6 -28 10 -65 10 -37 0 -65
-4 -65 -10z"/>
<path d="M1290 134 c0 -64 3 -85 13 -81 6 2 12 17 12 33 0 25 4 30 33 34 18 3
33 10 33 15 0 6 -15 12 -33 15 -25 4 -33 10 -33 25 0 16 8 21 38 23 55 5 45
22 -13 22 l-50 0 0 -86z"/>
<path d="M1450 200 c-26 -26 -27 -89 -1 -121 28 -35 95 -33 127 4 51 59 14
137 -66 137 -27 0 -47 -7 -60 -20z m102 -17 c39 -35 11 -103 -43 -103 -30 0
-59 31 -59 62 0 25 35 58 62 58 12 0 30 -7 40 -17z"/>
<path d="M1650 145 c0 -41 0 -78 0 -82 0 -5 6 -8 13 -8 8 0 11 11 9 33 -5 44
22 43 49 -3 12 -19 27 -35 35 -35 19 0 18 7 -7 42 l-21 29 21 15 c46 33 11 84
-57 84 l-42 0 0 -75z m84 32 c13 -21 -5 -37 -41 -37 -19 0 -23 5 -23 31 0 27
3 30 26 27 15 -2 32 -11 38 -21z"/>
<path d="M1885 193 c10 -16 24 -37 32 -48 7 -11 13 -37 13 -58 0 -54 24 -43
30 14 3 24 15 59 28 76 26 37 27 43 7 43 -8 0 -21 -13 -30 -30 -19 -37 -26
-37 -47 0 -9 17 -25 30 -34 30 -15 0 -15 -2 1 -27z"/>
<path d="M2068 206 c-47 -35 -40 -114 14 -142 85 -44 170 64 103 131 -27 28
-88 34 -117 11z m94 -23 c39 -35 11 -103 -43 -103 -30 0 -59 31 -59 62 0 25
35 58 62 58 12 0 30 -7 40 -17z"/>
<path d="M2250 160 c0 -51 4 -65 25 -85 30 -30 54 -31 89 -4 23 18 26 27 26
85 0 49 -3 64 -15 64 -11 0 -15 -16 -17 -67 -3 -62 -5 -68 -26 -71 -39 -6 -52
15 -52 79 0 46 -3 59 -15 59 -12 0 -15 -13 -15 -60z"/>
</g>
</svg>
